<svg width="78" height="78" viewBox="0 0 78 78" fill="none" xmlns="http://www.w3.org/2000/svg">
<g clip-path="url(#clip0)">
<path d="M73.125 55.8125H61.1875V48.75V48.5H60.9375H7.3125H7.0625V48.75V55.8125H4.875C4.29484 55.8125 3.73844 55.582 3.3282 55.1718C2.91797 54.7616 2.6875 54.2052 2.6875 53.625V24.375C2.6875 23.7948 2.91797 23.2384 3.3282 22.8282C3.73844 22.418 4.29484 22.1875 4.875 22.1875H73.125C73.7052 22.1875 74.2616 22.418 74.6718 22.8282L74.8486 22.6514L74.6718 22.8282C75.082 23.2384 75.3125 23.7948 75.3125 24.375V53.625C75.3125 54.2052 75.082 54.7616 74.6718 55.1718C74.2616 55.582 73.7052 55.8125 73.125 55.8125ZM73.125 19.25H4.875C3.51577 19.25 2.2122 19.79 1.25108 20.7511C0.289954 21.7122 -0.25 23.0158 -0.25 24.375V53.625C-0.25 54.9842 0.289954 56.2878 1.25108 57.2489C2.2122 58.21 3.51577 58.75 4.875 58.75H73.125C74.4842 58.75 75.7878 58.21 76.7489 57.2489C77.71 56.2878 78.25 54.9842 78.25 53.625V24.375C78.25 23.0158 77.71 21.7122 76.7489 20.7511C75.7878 19.79 74.4842 19.25 73.125 19.25ZM10 51.4375H58.25V55.8125H10V51.4375Z" fill="white" stroke="white" stroke-width="0.5"/>
<path d="M7.5625 29V27.0625H70.4375V29H7.5625Z" fill="white" stroke="white" stroke-width="0.5"/>
<path d="M7.5625 36.3125V34.375H70.4375V36.3125H7.5625Z" fill="white" stroke="white" stroke-width="0.5"/>
<path d="M7.5625 43.625V41.6875H70.4375V43.625H7.5625Z" fill="white" stroke="white" stroke-width="0.5"/>
<path d="M68.25 53.875C69.7343 53.875 70.9375 52.6718 70.9375 51.1875C70.9375 49.7032 69.7343 48.5 68.25 48.5C66.7657 48.5 65.5625 49.7032 65.5625 51.1875C65.5625 52.6718 66.7657 53.875 68.25 53.875Z" fill="white" stroke="white" stroke-width="0.5"/>
</g>
<defs>
<clipPath id="clip0">
<rect width="78" height="78" fill="white"/>
</clipPath>
</defs>
</svg>
