<svg width="44" height="44" viewBox="0 0 44 44" fill="none" xmlns="http://www.w3.org/2000/svg">
<path d="M6.44085 1.3457C4.80649 2.3776 1.49477 5.61087 1.49477 9.42889C1.36574 10.4035 1.44666 12.3526 1.49477 12.6106C1.65247 13.4561 1.88185 15.2505 2.22593 15.6633C2.48398 16.3082 3.22948 17.5694 3.73126 18.157C4.23303 18.7446 5.3398 19.9886 5.75269 20.2638C6.44084 20.8084 7.81714 21.6117 8.29025 21.8976C8.90671 22.2703 10.1827 22.7689 10.9568 23.0155C12.2614 23.4311 15.1029 24.1678 16.0319 23.7894V23.9614C15.5015 24.5634 14.3976 25.5523 13.7954 25.5523C13.1503 25.6956 11.6593 25.6382 11.3009 25.5523C10.9425 25.4663 10.0536 25.2599 9.36548 25.1223C8.59131 24.979 6.8566 24.9073 6.05376 25.1223C5.25092 25.3373 3.73126 25.9822 2.69903 26.7561C2.0969 27.3294 0.815223 28.7511 0.505558 29.8518C0.218829 30.6974 -0.210014 32.8185 0.118469 34.1514C0.362188 35.1403 1.19371 37.548 1.96788 38.193C2.57001 39.1389 4.67747 40.9723 5.32261 41.2457C6.64156 41.8046 8.16122 42.6645 10.9998 42.6645C11.9891 42.5929 14.0879 42.3636 15.0857 42.0196C16.462 41.5452 17.8383 40.6007 18.9566 39.6548C19.6304 38.9812 20.935 37.0751 21.4941 36.3872C21.8669 35.7566 22.5435 34.3922 22.7844 33.4635C23.1715 32.5605 24.0747 30.17 23.9026 28.003C24.4904 28.3613 25.451 29.3359 25.666 30.5397C25.6947 31.672 25.666 33.2055 25.1929 34.3664C25.0209 35.126 24.78 36.9289 25.1929 38.064C25.365 38.8379 26.0359 40.6781 27.3434 41.8476C28.0315 42.4495 29.8379 43.7136 31.5583 43.9544C32.0888 44.0261 33.5883 44.0662 35.3431 43.6534C36.1316 43.4098 37.2785 42.7505 38.8699 41.5466C39.5724 40.9017 41.0634 39.3453 41.4074 38.279C41.8232 37.5767 42.6547 35.6562 42.6547 33.5924C42.7551 33.0335 42.7751 31.3481 42.0526 29.0779C41.9092 28.5046 41.1924 26.8765 39.472 24.9503C38.6692 24.1191 36.5732 22.276 34.612 21.5537C33.1927 20.9517 29.8121 19.9198 27.9885 20.0918C28.476 19.5042 29.4594 18.372 30.5261 18.372C30.7841 18.372 33.4765 18.2 34.612 18.7159C34.827 18.8137 35.7732 19.0599 37.2785 18.8879C37.5223 18.9166 38.4742 18.7847 39.8161 18.2C40.2749 17.942 41.3902 17.2111 42.1816 16.3512C42.583 15.8782 43.4461 14.6142 43.6869 13.3415C43.8446 12.7252 44.117 11.2777 43.945 10.4178C43.945 9.84451 43.6869 8.2594 42.6547 6.50518C42.3393 5.91757 41.3386 4.49298 39.8591 3.49549C38.9272 2.82189 36.6334 1.47469 34.913 1.47469C34.0528 1.33137 32.0056 1.13072 30.6981 1.47469C29.7663 1.68967 27.61 2.3604 26.4402 3.3235C25.8094 3.73913 24.3843 4.83695 23.7306 5.90324C22.598 7.43675 20.2985 11.2605 20.1608 14.2874V16.0502C19.0856 15.5343 18.3114 14.0638 18.3114 13.3415V12.3526C18.3544 11.6503 18.5093 10.0824 18.7845 9.42889C18.9422 9.11358 19.1888 7.96703 18.9136 5.90324C18.6412 4.6707 17.4426 1.92184 14.8277 0.78676C13.5947 0.0844981 10.1913 -0.78688 6.44085 1.3457Z" fill="white"/>
</svg>
