<svg width="527" height="527" viewBox="0 0 527 527" fill="none" xmlns="http://www.w3.org/2000/svg">
<path d="M29.7995 114.507L29.9033 113.723V112.932C29.9033 93.5101 38.3764 74.8444 49.8764 59.0849C61.2708 43.47 74.8344 31.8228 83.3219 26.4096C124.052 3.37209 160.163 13.3045 171.656 19.8504L172.221 20.1721L172.817 20.4309C185.813 26.0722 195.604 35.8683 202.625 46.3184C209.505 56.5594 213.304 66.8125 214.708 72.8223C216.189 84.1782 216.222 92.7566 215.743 98.7102C215.285 104.411 214.411 107.08 214.27 107.509C214.252 107.564 214.246 107.582 214.255 107.565L214.08 107.914L213.928 108.274C211.6 113.804 210.158 121.9 209.227 128.561C208.237 135.642 207.617 142.754 207.343 147.217L207.321 147.583V147.95V159.795C207.321 167.353 210.929 176.196 215.404 183.323C220.036 190.702 227.089 198.646 236.28 203.057L253.472 211.306V192.238V171.408C254.246 155.739 260.704 137.069 269.196 119.407C277.636 101.853 287.514 86.4539 293.881 77.8338L294.188 77.4178L294.458 76.9769C297.465 72.0726 302.673 66.5117 308.533 61.2996C314.276 56.1917 319.97 52.01 323.284 49.827L323.816 49.4761L324.308 49.0709C329.859 44.5012 338.434 40.1586 347.637 36.5436C356.661 32.9988 365.341 30.5175 370.377 29.3556L370.556 29.3145L370.733 29.2679C376.874 27.6523 385.542 27.1795 394.546 27.468C403.36 27.7504 411.535 28.7238 416.191 29.4996L417.17 29.6628H418.163C425.813 29.6628 435.908 32.8023 446.263 37.6194C456.35 42.3117 465.353 47.9629 470.374 51.5917L470.533 51.7066L470.695 51.8162C486.45 62.438 497.236 77.8547 500.314 83.5895L500.425 83.797L500.545 84C511.896 103.291 514.341 120.191 514.341 124.777V125.965L514.574 127.131C515.215 130.331 515.124 135.671 514.364 141.934C513.638 147.916 512.453 153.584 511.625 156.82L511.531 157.189L511.46 157.563C509.154 169.746 500.467 182.832 496.222 187.899C488.194 196.555 476.665 204.263 471.518 207.235C464.374 210.309 458.395 212.15 454.015 213.179C450.651 213.97 448.715 214.168 448.023 214.239C447.676 214.274 447.642 214.278 447.897 214.308L446.515 214.146L445.133 214.303C437.04 215.228 430.619 215.009 426.111 214.487C422.222 214.037 420.108 213.407 419.608 213.257C419.489 213.222 419.461 213.214 419.521 213.241C414.539 210.977 408.615 209.756 403.22 209.024C397.648 208.268 391.774 207.928 386.452 207.793C381.101 207.657 376.134 207.725 372.342 207.825C370.442 207.875 368.825 207.933 367.611 207.978L367.337 207.988C366.848 208.006 366.454 208.02 366.131 208.031C365.833 208.041 365.686 208.044 365.635 208.046C365.612 208.046 365.608 208.046 365.619 208.046C355.124 208.046 346.306 213.491 340.268 218.382C334.008 223.453 328.966 229.397 325.99 232.984L307.465 255.316L336.353 252.592C345.108 251.766 358.999 253.876 373.805 257.567C388.268 261.173 402.033 265.877 409.872 269.202L410.138 269.315L410.41 269.415C431.196 277.07 454.62 297.366 463.976 307.008C483.556 328.981 490.915 346.713 492.034 351.185L492.126 351.553L492.241 351.913C500.452 377.714 499.855 395.886 499.076 400.225L498.887 401.277V402.346C498.887 424.333 489.845 445.231 485.622 452.364L484.94 453.517L484.528 454.793C483.237 458.794 479.102 465.121 473.151 472.247C467.702 478.773 461.744 484.787 457.852 488.396C439.556 502.196 427.454 508.91 420.141 511.267C400.757 515.763 384.498 515.219 379.615 514.565C371.389 513.408 362.323 509.666 353.966 504.988C345.723 500.374 338.962 495.296 335.45 492.231C322.422 480.546 315.231 461.28 313.457 453.299L313.287 452.536L313.02 451.801C311.356 447.227 310.766 440.311 311.104 432.597C311.408 425.656 312.407 419.152 313.256 415.136C319.579 398.825 319.74 378.694 319.405 365.479L319.382 364.569L319.222 363.673C317.5 354.034 312.902 345.751 308.004 339.438C303.136 333.163 297.437 328.142 292.534 325.153L272.466 312.92L274.326 336.349C276.138 359.165 266.417 385.456 261.866 396.073L261.507 396.908L261.279 397.789C258.884 407.023 251.817 421.58 247.53 428.995C245 432.174 241.497 436.937 237.834 441.916C236.273 444.039 234.682 446.202 233.126 448.298C227.418 455.984 222.199 462.733 218.891 466.139C206.083 476.918 191.087 487.002 176.775 491.935C171.983 493.587 163.712 495.181 154.499 496.484C145.76 497.719 137.012 498.58 131.316 499.004C104.563 498.931 89.1236 492.089 74.8877 485.781C72.7212 484.821 70.5825 483.873 68.4361 482.963C68.4402 482.965 68.4422 482.966 68.4422 482.966C68.4424 482.966 68.2976 482.9 67.9846 482.724C67.6425 482.532 67.1918 482.26 66.6287 481.895C65.4961 481.161 64.0923 480.169 62.464 478.938C59.2108 476.478 55.362 473.29 51.4674 469.806C43.3402 462.536 36.3353 455.155 33.6928 451.004L32.6881 449.425L31.2506 448.228C30.6017 447.687 29.0943 445.937 27.013 442.314C25.0688 438.929 23.0827 434.73 21.1926 430.183C17.3976 421.053 14.3748 411.462 13.0703 406.169C11.6357 400.348 11.7163 391.759 12.8781 382.616C14.0144 373.674 15.9979 365.59 17.4196 361.397L17.5211 361.098L17.6068 360.793C18.8151 356.498 22.3955 350.443 27.3888 343.952C31.9302 338.049 36.8576 332.781 40.0893 329.649C51.0409 321.617 67.3693 314.695 75.6115 312.488C78.7136 311.658 84.898 311.181 92.2986 311.286C99.4091 311.387 106.15 311.995 109.908 312.681C117.919 314.285 128.333 316.702 132.554 317.715C136.159 318.58 142.944 318.99 148.832 319.075C154.458 319.156 161.471 318.976 166.729 317.987C170.821 317.664 174.482 316.092 177.101 314.731C180.303 313.066 183.45 310.908 186.282 308.72C191.945 304.347 197.39 299.047 201.022 294.926L204.019 291.525V286.992V284.933V267.088L187.508 273.812C187.507 273.81 187.011 273.977 185.775 274.088C184.486 274.204 182.786 274.227 180.666 274.113C176.412 273.885 171.209 273.154 165.562 272.077C154.293 269.926 142.355 266.612 134.875 264.229C125.845 261.352 111.65 255.72 105.502 252.004C104.672 251.502 103.674 250.905 102.55 250.231C95.3005 245.89 82.8154 238.413 76.3486 233.295L75.9643 232.991L75.5616 232.723C75.565 232.725 75.485 232.67 75.3105 232.532C75.1223 232.384 74.8733 232.178 74.5598 231.906C73.9273 231.356 73.1472 230.635 72.2307 229.746C70.3967 227.968 68.2377 225.735 65.9668 223.303C61.4322 218.445 56.7359 213.098 53.8158 209.679C48.6935 203.68 40.4294 189.712 37.8018 183.145L37.0955 181.38L36.2165 180.326C36.1592 180.174 35.8146 179.44 35.3064 177.758C34.6058 175.439 33.9055 172.413 33.2159 168.933C32.3371 164.498 31.6875 160.556 31.0706 156.812C30.6217 154.088 30.1901 151.469 29.7 148.841C29.7083 148.885 29.7029 148.823 29.6875 148.646C29.6476 148.191 29.5408 146.967 29.4262 144.793C29.2868 142.145 29.1646 138.72 29.1061 135.016C28.986 127.397 29.1515 119.402 29.7995 114.507Z" stroke="black" stroke-width="24"/>
<circle cx="255.5" cy="263.5" r="23.5" fill="black"/>
</svg>
