<svg width="527" height="527" viewBox="0 0 527 527" fill="none" xmlns="http://www.w3.org/2000/svg">
<path d="M26.3297 114.048L26.4033 113.493V112.932C26.4033 92.506 35.2974 73.1263 47.0491 57.0217C58.727 41.0184 72.6552 29.0432 81.5187 23.4084C123.472 -0.360902 160.941 9.71959 173.388 16.8092L173.788 17.037L174.211 17.2204C187.984 23.1989 198.249 33.5298 205.53 44.3666C212.713 55.0571 216.687 65.7974 218.156 72.1989C219.687 83.8521 219.735 92.734 219.232 98.9907C218.978 102.155 218.586 104.603 218.193 106.369C217.996 107.252 217.807 107.931 217.647 108.421C217.495 108.891 217.396 109.106 217.386 109.129C217.385 109.131 217.385 109.131 217.385 109.13L217.261 109.378L217.154 109.633C215.024 114.691 213.627 122.366 212.693 129.046C211.717 136.023 211.106 143.043 210.837 147.431L210.821 147.69V147.95V159.795C210.821 166.41 214.053 174.589 218.368 181.463C222.795 188.514 229.406 195.876 237.794 199.901L249.972 205.744V192.238V171.323C250.761 154.94 257.463 135.734 266.042 117.89C274.583 100.125 284.578 84.5389 291.065 75.7545L291.283 75.4598L291.474 75.1476C294.746 69.8112 300.251 63.9822 306.207 58.6844C312.08 53.4604 317.909 49.1766 321.358 46.9043L321.735 46.6558L322.084 46.3688C328.059 41.4497 337.038 36.9468 346.357 33.286C355.55 29.6748 364.395 27.1437 369.59 25.9452L369.717 25.9161L369.842 25.8831C376.476 24.1379 385.546 23.6778 394.658 23.9698C403.636 24.2574 411.965 25.2473 416.766 26.0472L417.46 26.1628H418.163C426.586 26.1628 437.243 29.5631 447.74 34.446C458.046 39.2404 467.24 45.0082 472.424 48.7551L472.537 48.8365L472.652 48.9142C488.98 59.9226 500.116 75.8194 503.398 81.9343L503.477 82.0813L503.561 82.225C515.208 102.018 517.841 119.526 517.841 124.777V125.619L518.006 126.444C518.76 130.213 518.609 136.01 517.839 142.356C517.093 148.502 515.878 154.319 515.016 157.687L514.949 157.949L514.899 158.214C512.425 171.286 503.259 184.972 498.848 190.215C490.403 199.344 478.345 207.358 473.088 210.37C465.681 213.57 459.441 215.5 454.815 216.586C450.358 217.634 448.008 217.755 447.563 217.778C447.498 217.781 447.474 217.782 447.488 217.784L446.51 217.669L445.531 217.781C437.168 218.736 430.48 218.516 425.708 217.964C423.32 217.687 421.434 217.33 420.079 217.005C418.819 216.703 418.196 216.472 418.087 216.432C418.071 216.426 418.066 216.424 418.073 216.427C413.552 214.373 408.025 213.208 402.75 212.492C397.35 211.76 391.613 211.425 386.363 211.291C381.093 211.158 376.191 211.225 372.434 211.324C370.553 211.373 368.951 211.431 367.739 211.476C367.126 211.498 366.637 211.516 366.247 211.529C366.181 211.531 366.12 211.533 366.063 211.535C365.955 211.539 365.863 211.541 365.786 211.543C365.721 211.545 365.677 211.545 365.651 211.546C365.626 211.546 365.617 211.546 365.619 211.546C356.322 211.546 348.285 216.392 342.471 221.101C336.499 225.939 331.643 231.651 328.684 235.218L315.562 251.037L336.024 249.107C345.411 248.222 359.795 250.468 374.652 254.171C389.265 257.814 403.207 262.573 411.238 265.979L411.427 266.059L411.619 266.13C433.192 274.075 457.105 294.888 466.539 304.624C486.42 326.919 494.137 345.167 495.429 350.336L495.494 350.596L495.576 350.852C503.917 377.058 503.423 395.818 502.521 400.844L502.387 401.589V402.346C502.387 425.13 493.078 446.642 488.634 454.147L488.15 454.964L487.859 455.867C486.343 460.564 481.812 467.336 475.837 474.491C470.219 481.218 464.084 487.4 460.1 491.084C441.565 505.077 428.991 512.127 421.072 514.644C401.215 519.271 384.461 518.746 379.145 518.034C370.312 516.794 360.808 512.829 352.257 508.042C343.788 503.301 336.819 498.074 333.13 494.853C319.335 482.491 311.898 462.415 310.04 454.058L309.92 453.518L309.73 452.997C307.831 447.775 307.263 440.31 307.607 432.444C307.927 425.136 308.992 418.3 309.892 414.128C316.031 398.506 316.243 378.879 315.906 365.568L315.89 364.923L315.777 364.288C314.181 355.358 309.897 347.588 305.239 341.583C300.601 335.605 295.212 330.884 290.713 328.142L276.498 319.477L277.815 336.072C279.699 359.804 269.659 386.777 265.083 397.452L264.829 398.044L264.667 398.667C262.133 408.439 254.774 423.504 250.428 430.975C247.942 434.081 244.442 438.84 240.72 443.9C239.145 446.042 237.53 448.238 235.936 450.384C230.209 458.095 224.789 465.122 221.276 468.706C208.293 479.65 192.86 490.092 177.916 495.244C172.778 497.015 164.215 498.645 154.989 499.949C146.098 501.206 137.204 502.079 131.442 502.504C103.842 502.452 87.7661 495.323 73.4466 488.972C71.2914 488.016 69.1759 487.078 67.0669 486.184C66.2051 485.819 63.921 484.427 60.353 481.729C57.0087 479.201 53.0852 475.949 49.1339 472.414C40.992 465.131 33.6638 457.476 30.7403 452.883L30.0286 451.765L29.0103 450.917C27.8746 449.971 26.1182 447.783 23.978 444.057C21.935 440.5 19.8849 436.155 17.9607 431.526C14.1019 422.243 11.0217 412.483 9.67198 407.006C8.08203 400.555 8.22677 391.455 9.40605 382.175C10.5672 373.037 12.5971 364.72 14.105 360.273L14.1769 360.061L14.2376 359.845C15.6344 354.881 19.5602 348.389 24.6147 341.818C29.3493 335.664 34.4854 330.189 37.8256 326.969C49.1859 318.579 66.0642 311.421 74.7061 309.107C78.3058 308.143 84.9026 307.681 92.3483 307.786C99.5911 307.889 106.558 308.508 110.57 309.244C118.648 310.861 129.129 313.294 133.371 314.312C136.55 315.075 142.971 315.49 148.883 315.575C154.575 315.657 161.391 315.459 166.272 314.511C169.733 314.278 172.972 312.932 175.487 311.625C178.441 310.089 181.407 308.063 184.143 305.95C189.612 301.726 194.897 296.583 198.396 292.612L200.519 290.203V286.992V284.933V272.293L188.813 277.06C187.874 277.443 185.268 277.865 180.479 277.608C176.008 277.369 170.634 276.608 164.906 275.515C153.467 273.332 141.39 269.978 133.813 267.564C124.712 264.665 110.2 258.933 103.692 254.999C102.888 254.514 101.912 253.929 100.804 253.266C93.5968 248.951 80.8467 241.319 74.1765 236.04L73.9043 235.824L73.6155 235.632C73.0858 235.279 71.8145 234.218 69.7943 232.259C67.9025 230.425 65.7 228.146 63.4084 225.691C58.8304 220.787 54.099 215.4 51.1542 211.952C45.773 205.65 37.315 191.35 34.5523 184.445L34.0519 183.195L33.1896 182.16C33.2417 182.223 33.2336 182.206 33.1754 182.083C33.0301 181.776 32.572 180.809 31.956 178.77C31.207 176.291 30.4809 173.137 29.7827 169.613C28.9087 165.203 28.2282 161.084 27.5939 157.245C27.1432 154.517 26.7159 151.931 26.2592 149.482C26.2643 149.509 26.2633 149.501 26.2573 149.45C26.2433 149.331 26.2017 148.977 26.1459 148.298C26.0761 147.449 26.0021 146.326 25.9311 144.977C25.7892 142.283 25.6656 138.815 25.6066 135.071C25.4861 127.434 25.6454 119.217 26.3297 114.048Z" stroke="black" stroke-width="17"/>
<circle cx="264" cy="264" r="31" fill="black"/>
</svg>
