<svg width="35" height="51" viewBox="0 0 35 51" fill="none" xmlns="http://www.w3.org/2000/svg">
<path d="M17.5 7.96875C12.2361 7.96875 7.95455 12.2579 7.95455 17.5312C7.95455 18.4118 8.66648 19.125 9.54545 19.125C10.4244 19.125 11.1364 18.4118 11.1364 17.5312C11.1364 14.015 13.992 11.1562 17.5 11.1562C18.379 11.1562 19.0909 10.443 19.0909 9.5625C19.0909 8.68195 18.379 7.96875 17.5 7.96875ZM9.55142 45.7376C9.55142 46.0514 9.64389 46.3572 9.8179 46.6182L12.255 50.2878C12.5503 50.7321 13.0474 50.999 13.5794 50.999H21.4196C21.9526 50.999 22.4497 50.7321 22.744 50.2878L25.1811 46.6182C25.3541 46.3572 25.4466 46.0504 25.4476 45.7376L25.4526 41.4365H9.54744L9.55142 45.7376ZM17.5 0C7.33011 0 0 8.26459 0 17.5312C0 21.9509 1.63565 25.9831 4.33125 29.064C5.9858 30.9556 8.58097 34.9211 9.54347 38.244V38.25H14.3162V38.238C14.3152 37.7629 14.2446 37.2908 14.1024 36.8365C13.5466 35.0625 11.8334 30.3848 7.92074 25.9124C5.87841 23.5785 4.78665 20.6181 4.7777 17.5312C4.75781 10.196 10.7108 4.78125 17.5 4.78125C24.5179 4.78125 30.2273 10.5008 30.2273 17.5312C30.2273 20.6162 29.1097 23.5925 27.0803 25.9124C23.1915 30.356 21.4703 35.0237 20.9055 36.8156C20.7598 37.2764 20.6853 37.7567 20.6848 38.24V38.25H25.4575V38.245C26.42 34.9211 29.0152 30.9556 30.6697 29.065C33.3643 25.9831 35 21.9509 35 17.5312C35 7.84922 27.1648 0 17.5 0Z" fill="#FBFAFF"/>
</svg>
